<mxfile host="app.diagrams.net" agent="Mozilla/5.0 (Windows NT 10.0; Win64; x64) AppleWebKit/537.36 (KHTML, like Gecko) Chrome/132.0.0.0 Safari/537.36" version="26.0.10">
  <diagram name="Page-1" id="bsBIxXo66SyJ4SMhKerk">
    <mxGraphModel dx="2284" dy="1846" grid="1" gridSize="10" guides="1" tooltips="1" connect="1" arrows="1" fold="1" page="1" pageScale="1" pageWidth="850" pageHeight="1100" math="0" shadow="0">
      <root>
        <mxCell id="0" />
        <mxCell id="1" parent="0" />
        <mxCell id="qgOZdKixDzJ8qkSyJ_fD-238" value="" style="rounded=0;whiteSpace=wrap;html=1;" parent="1" vertex="1">
          <mxGeometry x="-95" y="380" width="180" height="330" as="geometry" />
        </mxCell>
        <mxCell id="qgOZdKixDzJ8qkSyJ_fD-114" value="" style="rounded=0;whiteSpace=wrap;html=1;" parent="1" vertex="1">
          <mxGeometry x="-280" y="-10" width="370" height="330" as="geometry" />
        </mxCell>
        <mxCell id="qgOZdKixDzJ8qkSyJ_fD-48" value="" style="rounded=0;whiteSpace=wrap;html=1;" parent="1" vertex="1">
          <mxGeometry x="127.5" y="-10" width="822.5" height="330" as="geometry" />
        </mxCell>
        <mxCell id="qgOZdKixDzJ8qkSyJ_fD-2" value="" style="rounded=0;whiteSpace=wrap;html=1;" parent="1" vertex="1">
          <mxGeometry x="130" y="380" width="590" height="330" as="geometry" />
        </mxCell>
        <mxCell id="qgOZdKixDzJ8qkSyJ_fD-5" value="shared I2C bus" style="rounded=1;whiteSpace=wrap;html=1;" parent="1" vertex="1">
          <mxGeometry x="160" y="240" width="770" height="60" as="geometry" />
        </mxCell>
        <mxCell id="qgOZdKixDzJ8qkSyJ_fD-6" value="raspberry pi 4" style="rounded=0;whiteSpace=wrap;html=1;" parent="1" vertex="1">
          <mxGeometry x="260" y="475" width="110" height="75" as="geometry" />
        </mxCell>
        <mxCell id="qgOZdKixDzJ8qkSyJ_fD-7" value="fpga 1" style="rounded=0;whiteSpace=wrap;html=1;" parent="1" vertex="1">
          <mxGeometry x="380" y="400" width="120" height="50" as="geometry" />
        </mxCell>
        <mxCell id="qgOZdKixDzJ8qkSyJ_fD-8" value="fpga 2" style="rounded=0;whiteSpace=wrap;html=1;" parent="1" vertex="1">
          <mxGeometry x="560" y="400" width="120" height="50" as="geometry" />
        </mxCell>
        <mxCell id="qgOZdKixDzJ8qkSyJ_fD-10" value="temp&lt;div&gt;s1&lt;/div&gt;" style="rounded=0;whiteSpace=wrap;html=1;" parent="1" vertex="1">
          <mxGeometry x="160" y="110" width="40" height="50" as="geometry" />
        </mxCell>
        <mxCell id="qgOZdKixDzJ8qkSyJ_fD-11" value="temp&lt;div&gt;s2&lt;/div&gt;" style="rounded=0;whiteSpace=wrap;html=1;" parent="1" vertex="1">
          <mxGeometry x="220" y="110" width="40" height="50" as="geometry" />
        </mxCell>
        <mxCell id="qgOZdKixDzJ8qkSyJ_fD-12" value="temp&lt;div&gt;s3&lt;/div&gt;" style="rounded=0;whiteSpace=wrap;html=1;" parent="1" vertex="1">
          <mxGeometry x="280" y="110" width="40" height="50" as="geometry" />
        </mxCell>
        <mxCell id="qgOZdKixDzJ8qkSyJ_fD-13" value="temp&lt;div&gt;s4&lt;/div&gt;" style="rounded=0;whiteSpace=wrap;html=1;" parent="1" vertex="1">
          <mxGeometry x="340" y="110" width="40" height="50" as="geometry" />
        </mxCell>
        <mxCell id="qgOZdKixDzJ8qkSyJ_fD-16" value="SD card" style="rounded=0;whiteSpace=wrap;html=1;" parent="1" vertex="1">
          <mxGeometry x="270" y="522.5" width="50" height="27.5" as="geometry" />
        </mxCell>
        <mxCell id="qgOZdKixDzJ8qkSyJ_fD-17" value="SD card&lt;div&gt;(spi interface)&lt;/div&gt;" style="rounded=0;whiteSpace=wrap;html=1;" parent="1" vertex="1">
          <mxGeometry x="450" y="560" width="160" height="40" as="geometry" />
        </mxCell>
        <mxCell id="qgOZdKixDzJ8qkSyJ_fD-18" value="temp&lt;div&gt;s5&lt;/div&gt;" style="rounded=0;whiteSpace=wrap;html=1;" parent="1" vertex="1">
          <mxGeometry x="400" y="110" width="40" height="50" as="geometry" />
        </mxCell>
        <mxCell id="qgOZdKixDzJ8qkSyJ_fD-21" value="9 axis&lt;div&gt;Gyro s1&lt;/div&gt;" style="rounded=0;whiteSpace=wrap;html=1;" parent="1" vertex="1">
          <mxGeometry x="460" y="110" width="40" height="50" as="geometry" />
        </mxCell>
        <mxCell id="qgOZdKixDzJ8qkSyJ_fD-22" value="9 axis&lt;div&gt;Gyro s2&lt;/div&gt;" style="rounded=0;whiteSpace=wrap;html=1;" parent="1" vertex="1">
          <mxGeometry x="520" y="110" width="40" height="50" as="geometry" />
        </mxCell>
        <mxCell id="qgOZdKixDzJ8qkSyJ_fD-23" value="9 axis&lt;div&gt;Gyro s3&lt;/div&gt;" style="rounded=0;whiteSpace=wrap;html=1;" parent="1" vertex="1">
          <mxGeometry x="580" y="110" width="40" height="50" as="geometry" />
        </mxCell>
        <mxCell id="qgOZdKixDzJ8qkSyJ_fD-25" value="current&lt;div&gt;s1&lt;/div&gt;" style="rounded=0;whiteSpace=wrap;html=1;" parent="1" vertex="1">
          <mxGeometry x="-185" y="129" width="40" height="50" as="geometry" />
        </mxCell>
        <mxCell id="qgOZdKixDzJ8qkSyJ_fD-26" value="current&lt;div&gt;s2&lt;/div&gt;" style="rounded=0;whiteSpace=wrap;html=1;" parent="1" vertex="1">
          <mxGeometry x="-105" y="129" width="40" height="50" as="geometry" />
        </mxCell>
        <mxCell id="qgOZdKixDzJ8qkSyJ_fD-27" value="current&lt;div&gt;s3&lt;/div&gt;" style="rounded=0;whiteSpace=wrap;html=1;" parent="1" vertex="1">
          <mxGeometry x="-25" y="129" width="40" height="50" as="geometry" />
        </mxCell>
        <mxCell id="qgOZdKixDzJ8qkSyJ_fD-49" value="Telemetry&amp;nbsp;" style="text;html=1;align=center;verticalAlign=middle;whiteSpace=wrap;rounded=0;" parent="1" vertex="1">
          <mxGeometry x="390" y="9" width="200" height="30" as="geometry" />
        </mxCell>
        <mxCell id="qgOZdKixDzJ8qkSyJ_fD-52" value="sda" style="endArrow=none;html=1;rounded=0;entryX=0.25;entryY=1;entryDx=0;entryDy=0;" parent="1" target="qgOZdKixDzJ8qkSyJ_fD-10" edge="1">
          <mxGeometry width="50" height="50" relative="1" as="geometry">
            <mxPoint x="170" y="240" as="sourcePoint" />
            <mxPoint x="220" y="190" as="targetPoint" />
          </mxGeometry>
        </mxCell>
        <mxCell id="qgOZdKixDzJ8qkSyJ_fD-53" value="" style="endArrow=none;html=1;rounded=0;entryX=0.25;entryY=1;entryDx=0;entryDy=0;" parent="1" edge="1">
          <mxGeometry width="50" height="50" relative="1" as="geometry">
            <mxPoint x="190" y="240" as="sourcePoint" />
            <mxPoint x="190" y="160" as="targetPoint" />
          </mxGeometry>
        </mxCell>
        <mxCell id="qgOZdKixDzJ8qkSyJ_fD-54" value="sclk" style="edgeLabel;html=1;align=center;verticalAlign=middle;resizable=0;points=[];" parent="qgOZdKixDzJ8qkSyJ_fD-53" vertex="1" connectable="0">
          <mxGeometry x="-0.25" y="-1" relative="1" as="geometry">
            <mxPoint as="offset" />
          </mxGeometry>
        </mxCell>
        <mxCell id="qgOZdKixDzJ8qkSyJ_fD-55" value="sda" style="endArrow=none;html=1;rounded=0;entryX=0.25;entryY=1;entryDx=0;entryDy=0;" parent="1" edge="1">
          <mxGeometry width="50" height="50" relative="1" as="geometry">
            <mxPoint x="229.82999999999998" y="240" as="sourcePoint" />
            <mxPoint x="229.82999999999998" y="160" as="targetPoint" />
          </mxGeometry>
        </mxCell>
        <mxCell id="qgOZdKixDzJ8qkSyJ_fD-56" value="" style="endArrow=none;html=1;rounded=0;entryX=0.25;entryY=1;entryDx=0;entryDy=0;" parent="1" edge="1">
          <mxGeometry width="50" height="50" relative="1" as="geometry">
            <mxPoint x="249.82999999999998" y="240" as="sourcePoint" />
            <mxPoint x="249.82999999999998" y="160" as="targetPoint" />
          </mxGeometry>
        </mxCell>
        <mxCell id="qgOZdKixDzJ8qkSyJ_fD-57" value="sclk" style="edgeLabel;html=1;align=center;verticalAlign=middle;resizable=0;points=[];" parent="qgOZdKixDzJ8qkSyJ_fD-56" vertex="1" connectable="0">
          <mxGeometry x="-0.25" y="-1" relative="1" as="geometry">
            <mxPoint as="offset" />
          </mxGeometry>
        </mxCell>
        <mxCell id="qgOZdKixDzJ8qkSyJ_fD-58" value="sda" style="endArrow=none;html=1;rounded=0;entryX=0.25;entryY=1;entryDx=0;entryDy=0;" parent="1" edge="1">
          <mxGeometry width="50" height="50" relative="1" as="geometry">
            <mxPoint x="289.83" y="240" as="sourcePoint" />
            <mxPoint x="289.83" y="160" as="targetPoint" />
          </mxGeometry>
        </mxCell>
        <mxCell id="qgOZdKixDzJ8qkSyJ_fD-59" value="" style="endArrow=none;html=1;rounded=0;entryX=0.25;entryY=1;entryDx=0;entryDy=0;" parent="1" edge="1">
          <mxGeometry width="50" height="50" relative="1" as="geometry">
            <mxPoint x="309.83" y="240" as="sourcePoint" />
            <mxPoint x="309.83" y="160" as="targetPoint" />
          </mxGeometry>
        </mxCell>
        <mxCell id="qgOZdKixDzJ8qkSyJ_fD-60" value="sclk" style="edgeLabel;html=1;align=center;verticalAlign=middle;resizable=0;points=[];" parent="qgOZdKixDzJ8qkSyJ_fD-59" vertex="1" connectable="0">
          <mxGeometry x="-0.25" y="-1" relative="1" as="geometry">
            <mxPoint as="offset" />
          </mxGeometry>
        </mxCell>
        <mxCell id="qgOZdKixDzJ8qkSyJ_fD-61" value="sda" style="endArrow=none;html=1;rounded=0;entryX=0.25;entryY=1;entryDx=0;entryDy=0;" parent="1" edge="1">
          <mxGeometry width="50" height="50" relative="1" as="geometry">
            <mxPoint x="350" y="240" as="sourcePoint" />
            <mxPoint x="350" y="160" as="targetPoint" />
          </mxGeometry>
        </mxCell>
        <mxCell id="qgOZdKixDzJ8qkSyJ_fD-62" value="" style="endArrow=none;html=1;rounded=0;entryX=0.25;entryY=1;entryDx=0;entryDy=0;" parent="1" edge="1">
          <mxGeometry width="50" height="50" relative="1" as="geometry">
            <mxPoint x="370" y="240" as="sourcePoint" />
            <mxPoint x="370" y="160" as="targetPoint" />
          </mxGeometry>
        </mxCell>
        <mxCell id="qgOZdKixDzJ8qkSyJ_fD-63" value="sclk" style="edgeLabel;html=1;align=center;verticalAlign=middle;resizable=0;points=[];" parent="qgOZdKixDzJ8qkSyJ_fD-62" vertex="1" connectable="0">
          <mxGeometry x="-0.25" y="-1" relative="1" as="geometry">
            <mxPoint as="offset" />
          </mxGeometry>
        </mxCell>
        <mxCell id="qgOZdKixDzJ8qkSyJ_fD-64" value="sda" style="endArrow=none;html=1;rounded=0;entryX=0.25;entryY=1;entryDx=0;entryDy=0;" parent="1" edge="1">
          <mxGeometry width="50" height="50" relative="1" as="geometry">
            <mxPoint x="409.83000000000004" y="240" as="sourcePoint" />
            <mxPoint x="409.83000000000004" y="160" as="targetPoint" />
          </mxGeometry>
        </mxCell>
        <mxCell id="qgOZdKixDzJ8qkSyJ_fD-65" value="" style="endArrow=none;html=1;rounded=0;entryX=0.25;entryY=1;entryDx=0;entryDy=0;" parent="1" edge="1">
          <mxGeometry width="50" height="50" relative="1" as="geometry">
            <mxPoint x="429.83000000000004" y="240" as="sourcePoint" />
            <mxPoint x="429.83000000000004" y="160" as="targetPoint" />
          </mxGeometry>
        </mxCell>
        <mxCell id="qgOZdKixDzJ8qkSyJ_fD-66" value="sclk" style="edgeLabel;html=1;align=center;verticalAlign=middle;resizable=0;points=[];" parent="qgOZdKixDzJ8qkSyJ_fD-65" vertex="1" connectable="0">
          <mxGeometry x="-0.25" y="-1" relative="1" as="geometry">
            <mxPoint as="offset" />
          </mxGeometry>
        </mxCell>
        <mxCell id="qgOZdKixDzJ8qkSyJ_fD-67" value="sda" style="endArrow=none;html=1;rounded=0;entryX=0.25;entryY=1;entryDx=0;entryDy=0;" parent="1" edge="1">
          <mxGeometry width="50" height="50" relative="1" as="geometry">
            <mxPoint x="469.83000000000004" y="240" as="sourcePoint" />
            <mxPoint x="469.83000000000004" y="160" as="targetPoint" />
          </mxGeometry>
        </mxCell>
        <mxCell id="qgOZdKixDzJ8qkSyJ_fD-68" value="" style="endArrow=none;html=1;rounded=0;entryX=0.25;entryY=1;entryDx=0;entryDy=0;" parent="1" edge="1">
          <mxGeometry width="50" height="50" relative="1" as="geometry">
            <mxPoint x="489.83000000000004" y="240" as="sourcePoint" />
            <mxPoint x="489.83000000000004" y="160" as="targetPoint" />
          </mxGeometry>
        </mxCell>
        <mxCell id="qgOZdKixDzJ8qkSyJ_fD-69" value="sclk" style="edgeLabel;html=1;align=center;verticalAlign=middle;resizable=0;points=[];" parent="qgOZdKixDzJ8qkSyJ_fD-68" vertex="1" connectable="0">
          <mxGeometry x="-0.25" y="-1" relative="1" as="geometry">
            <mxPoint as="offset" />
          </mxGeometry>
        </mxCell>
        <mxCell id="qgOZdKixDzJ8qkSyJ_fD-70" value="sda" style="endArrow=none;html=1;rounded=0;entryX=0.25;entryY=1;entryDx=0;entryDy=0;" parent="1" edge="1">
          <mxGeometry width="50" height="50" relative="1" as="geometry">
            <mxPoint x="529.71" y="240" as="sourcePoint" />
            <mxPoint x="529.71" y="160" as="targetPoint" />
          </mxGeometry>
        </mxCell>
        <mxCell id="qgOZdKixDzJ8qkSyJ_fD-71" value="" style="endArrow=none;html=1;rounded=0;entryX=0.25;entryY=1;entryDx=0;entryDy=0;" parent="1" edge="1">
          <mxGeometry width="50" height="50" relative="1" as="geometry">
            <mxPoint x="549.71" y="240" as="sourcePoint" />
            <mxPoint x="549.71" y="160" as="targetPoint" />
          </mxGeometry>
        </mxCell>
        <mxCell id="qgOZdKixDzJ8qkSyJ_fD-72" value="sclk" style="edgeLabel;html=1;align=center;verticalAlign=middle;resizable=0;points=[];" parent="qgOZdKixDzJ8qkSyJ_fD-71" vertex="1" connectable="0">
          <mxGeometry x="-0.25" y="-1" relative="1" as="geometry">
            <mxPoint as="offset" />
          </mxGeometry>
        </mxCell>
        <mxCell id="qgOZdKixDzJ8qkSyJ_fD-73" value="sda" style="endArrow=none;html=1;rounded=0;entryX=0.25;entryY=1;entryDx=0;entryDy=0;" parent="1" edge="1">
          <mxGeometry width="50" height="50" relative="1" as="geometry">
            <mxPoint x="589.71" y="240" as="sourcePoint" />
            <mxPoint x="589.71" y="160" as="targetPoint" />
          </mxGeometry>
        </mxCell>
        <mxCell id="qgOZdKixDzJ8qkSyJ_fD-74" value="" style="endArrow=none;html=1;rounded=0;entryX=0.25;entryY=1;entryDx=0;entryDy=0;" parent="1" edge="1">
          <mxGeometry width="50" height="50" relative="1" as="geometry">
            <mxPoint x="609.71" y="240" as="sourcePoint" />
            <mxPoint x="609.71" y="160" as="targetPoint" />
          </mxGeometry>
        </mxCell>
        <mxCell id="qgOZdKixDzJ8qkSyJ_fD-75" value="sclk" style="edgeLabel;html=1;align=center;verticalAlign=middle;resizable=0;points=[];" parent="qgOZdKixDzJ8qkSyJ_fD-74" vertex="1" connectable="0">
          <mxGeometry x="-0.25" y="-1" relative="1" as="geometry">
            <mxPoint as="offset" />
          </mxGeometry>
        </mxCell>
        <mxCell id="qgOZdKixDzJ8qkSyJ_fD-76" value="sda" style="endArrow=none;html=1;rounded=0;entryX=0.25;entryY=1;entryDx=0;entryDy=0;" parent="1" edge="1">
          <mxGeometry width="50" height="50" relative="1" as="geometry">
            <mxPoint x="649.71" y="240" as="sourcePoint" />
            <mxPoint x="649.71" y="160" as="targetPoint" />
          </mxGeometry>
        </mxCell>
        <mxCell id="qgOZdKixDzJ8qkSyJ_fD-77" value="" style="endArrow=none;html=1;rounded=0;entryX=0.25;entryY=1;entryDx=0;entryDy=0;" parent="1" edge="1">
          <mxGeometry width="50" height="50" relative="1" as="geometry">
            <mxPoint x="669.71" y="240" as="sourcePoint" />
            <mxPoint x="669.71" y="160" as="targetPoint" />
          </mxGeometry>
        </mxCell>
        <mxCell id="qgOZdKixDzJ8qkSyJ_fD-78" value="sclk" style="edgeLabel;html=1;align=center;verticalAlign=middle;resizable=0;points=[];" parent="qgOZdKixDzJ8qkSyJ_fD-77" vertex="1" connectable="0">
          <mxGeometry x="-0.25" y="-1" relative="1" as="geometry">
            <mxPoint as="offset" />
          </mxGeometry>
        </mxCell>
        <mxCell id="qgOZdKixDzJ8qkSyJ_fD-79" value="sda" style="endArrow=none;html=1;rounded=0;entryX=0.25;entryY=1;entryDx=0;entryDy=0;exitX=0.25;exitY=0;exitDx=0;exitDy=0;" parent="1" source="qgOZdKixDzJ8qkSyJ_fD-7" edge="1">
          <mxGeometry width="50" height="50" relative="1" as="geometry">
            <mxPoint x="409.71000000000004" y="380" as="sourcePoint" />
            <mxPoint x="409.71000000000004" y="300" as="targetPoint" />
          </mxGeometry>
        </mxCell>
        <mxCell id="qgOZdKixDzJ8qkSyJ_fD-80" value="" style="endArrow=none;html=1;rounded=0;exitX=0.422;exitY=0;exitDx=0;exitDy=0;exitPerimeter=0;" parent="1" edge="1">
          <mxGeometry width="50" height="50" relative="1" as="geometry">
            <mxPoint x="440" y="400" as="sourcePoint" />
            <mxPoint x="440" y="300" as="targetPoint" />
          </mxGeometry>
        </mxCell>
        <mxCell id="qgOZdKixDzJ8qkSyJ_fD-81" value="sclk" style="edgeLabel;html=1;align=center;verticalAlign=middle;resizable=0;points=[];" parent="qgOZdKixDzJ8qkSyJ_fD-80" vertex="1" connectable="0">
          <mxGeometry x="-0.25" y="-1" relative="1" as="geometry">
            <mxPoint as="offset" />
          </mxGeometry>
        </mxCell>
        <mxCell id="qgOZdKixDzJ8qkSyJ_fD-84" value="sda" style="endArrow=none;html=1;rounded=0;entryX=0.25;entryY=1;entryDx=0;entryDy=0;exitX=0.25;exitY=0;exitDx=0;exitDy=0;" parent="1" edge="1">
          <mxGeometry width="50" height="50" relative="1" as="geometry">
            <mxPoint x="600.29" y="400" as="sourcePoint" />
            <mxPoint x="600" y="300" as="targetPoint" />
          </mxGeometry>
        </mxCell>
        <mxCell id="qgOZdKixDzJ8qkSyJ_fD-85" value="" style="endArrow=none;html=1;rounded=0;exitX=0.422;exitY=0;exitDx=0;exitDy=0;exitPerimeter=0;entryX=0.537;entryY=1.011;entryDx=0;entryDy=0;entryPerimeter=0;" parent="1" edge="1">
          <mxGeometry width="50" height="50" relative="1" as="geometry">
            <mxPoint x="630.29" y="400" as="sourcePoint" />
            <mxPoint x="629.29" y="301" as="targetPoint" />
          </mxGeometry>
        </mxCell>
        <mxCell id="qgOZdKixDzJ8qkSyJ_fD-86" value="sclk" style="edgeLabel;html=1;align=center;verticalAlign=middle;resizable=0;points=[];" parent="qgOZdKixDzJ8qkSyJ_fD-85" vertex="1" connectable="0">
          <mxGeometry x="-0.25" y="-1" relative="1" as="geometry">
            <mxPoint as="offset" />
          </mxGeometry>
        </mxCell>
        <mxCell id="qgOZdKixDzJ8qkSyJ_fD-87" value="clk" style="endArrow=none;html=1;rounded=0;entryX=0;entryY=0.5;entryDx=0;entryDy=0;exitX=1;exitY=0.5;exitDx=0;exitDy=0;" parent="1" edge="1">
          <mxGeometry width="50" height="50" relative="1" as="geometry">
            <mxPoint x="500" y="410" as="sourcePoint" />
            <mxPoint x="560" y="410" as="targetPoint" />
          </mxGeometry>
        </mxCell>
        <mxCell id="qgOZdKixDzJ8qkSyJ_fD-88" value="data" style="endArrow=none;html=1;rounded=0;entryX=0;entryY=0.5;entryDx=0;entryDy=0;exitX=1;exitY=0.5;exitDx=0;exitDy=0;" parent="1" edge="1">
          <mxGeometry width="50" height="50" relative="1" as="geometry">
            <mxPoint x="500" y="424.71" as="sourcePoint" />
            <mxPoint x="560" y="424.71" as="targetPoint" />
          </mxGeometry>
        </mxCell>
        <mxCell id="qgOZdKixDzJ8qkSyJ_fD-101" value="" style="endArrow=none;html=1;rounded=0;entryX=0.67;entryY=0.992;entryDx=0;entryDy=0;entryPerimeter=0;exitX=0;exitY=0;exitDx=0;exitDy=0;" parent="1" edge="1">
          <mxGeometry width="50" height="50" relative="1" as="geometry">
            <mxPoint x="470" y="485.4" as="sourcePoint" />
            <mxPoint x="470.4000000000001" y="450" as="targetPoint" />
          </mxGeometry>
        </mxCell>
        <mxCell id="qgOZdKixDzJ8qkSyJ_fD-107" value="miso" style="edgeLabel;html=1;align=center;verticalAlign=middle;resizable=0;points=[];" parent="qgOZdKixDzJ8qkSyJ_fD-101" vertex="1" connectable="0">
          <mxGeometry x="0.5375" y="-1" relative="1" as="geometry">
            <mxPoint as="offset" />
          </mxGeometry>
        </mxCell>
        <mxCell id="qgOZdKixDzJ8qkSyJ_fD-102" value="" style="endArrow=none;html=1;rounded=0;entryX=0.67;entryY=0.992;entryDx=0;entryDy=0;entryPerimeter=0;exitX=0;exitY=0;exitDx=0;exitDy=0;" parent="1" edge="1">
          <mxGeometry width="50" height="50" relative="1" as="geometry">
            <mxPoint x="490" y="485.4" as="sourcePoint" />
            <mxPoint x="490.4000000000001" y="450" as="targetPoint" />
          </mxGeometry>
        </mxCell>
        <mxCell id="qgOZdKixDzJ8qkSyJ_fD-108" value="mosi" style="edgeLabel;html=1;align=center;verticalAlign=middle;resizable=0;points=[];" parent="qgOZdKixDzJ8qkSyJ_fD-102" vertex="1" connectable="0">
          <mxGeometry x="-0.6385" relative="1" as="geometry">
            <mxPoint y="-9" as="offset" />
          </mxGeometry>
        </mxCell>
        <mxCell id="qgOZdKixDzJ8qkSyJ_fD-103" value="" style="endArrow=none;html=1;rounded=0;entryX=0.67;entryY=0.992;entryDx=0;entryDy=0;entryPerimeter=0;exitX=0;exitY=0;exitDx=0;exitDy=0;" parent="1" edge="1">
          <mxGeometry width="50" height="50" relative="1" as="geometry">
            <mxPoint x="570" y="485.4" as="sourcePoint" />
            <mxPoint x="570.4000000000001" y="450" as="targetPoint" />
          </mxGeometry>
        </mxCell>
        <mxCell id="qgOZdKixDzJ8qkSyJ_fD-109" value="mosi" style="edgeLabel;html=1;align=center;verticalAlign=middle;resizable=0;points=[];" parent="qgOZdKixDzJ8qkSyJ_fD-103" vertex="1" connectable="0">
          <mxGeometry x="-0.4192" y="-1" relative="1" as="geometry">
            <mxPoint as="offset" />
          </mxGeometry>
        </mxCell>
        <mxCell id="qgOZdKixDzJ8qkSyJ_fD-104" value="" style="endArrow=none;html=1;rounded=0;entryX=0.67;entryY=0.992;entryDx=0;entryDy=0;entryPerimeter=0;exitX=0;exitY=0;exitDx=0;exitDy=0;" parent="1" edge="1">
          <mxGeometry width="50" height="50" relative="1" as="geometry">
            <mxPoint x="590" y="485.4" as="sourcePoint" />
            <mxPoint x="590.4000000000001" y="450" as="targetPoint" />
          </mxGeometry>
        </mxCell>
        <mxCell id="qgOZdKixDzJ8qkSyJ_fD-110" value="miso" style="edgeLabel;html=1;align=center;verticalAlign=middle;resizable=0;points=[];" parent="qgOZdKixDzJ8qkSyJ_fD-104" vertex="1" connectable="0">
          <mxGeometry x="0.6469" y="-1" relative="1" as="geometry">
            <mxPoint y="4" as="offset" />
          </mxGeometry>
        </mxCell>
        <mxCell id="qgOZdKixDzJ8qkSyJ_fD-105" value="" style="endArrow=none;html=1;rounded=0;entryX=0.67;entryY=0.992;entryDx=0;entryDy=0;entryPerimeter=0;exitX=0;exitY=0;exitDx=0;exitDy=0;" parent="1" edge="1">
          <mxGeometry width="50" height="50" relative="1" as="geometry">
            <mxPoint x="450" y="485.4" as="sourcePoint" />
            <mxPoint x="450.4000000000001" y="450" as="targetPoint" />
          </mxGeometry>
        </mxCell>
        <mxCell id="qgOZdKixDzJ8qkSyJ_fD-106" value="clk" style="edgeLabel;html=1;align=center;verticalAlign=middle;resizable=0;points=[];" parent="qgOZdKixDzJ8qkSyJ_fD-105" vertex="1" connectable="0">
          <mxGeometry x="-0.2924" relative="1" as="geometry">
            <mxPoint as="offset" />
          </mxGeometry>
        </mxCell>
        <mxCell id="qgOZdKixDzJ8qkSyJ_fD-111" value="" style="endArrow=none;html=1;rounded=0;entryX=0.67;entryY=0.992;entryDx=0;entryDy=0;entryPerimeter=0;exitX=0;exitY=0;exitDx=0;exitDy=0;" parent="1" edge="1">
          <mxGeometry width="50" height="50" relative="1" as="geometry">
            <mxPoint x="610" y="485.4" as="sourcePoint" />
            <mxPoint x="610.4000000000001" y="450" as="targetPoint" />
          </mxGeometry>
        </mxCell>
        <mxCell id="qgOZdKixDzJ8qkSyJ_fD-112" value="clk" style="edgeLabel;html=1;align=center;verticalAlign=middle;resizable=0;points=[];" parent="qgOZdKixDzJ8qkSyJ_fD-111" vertex="1" connectable="0">
          <mxGeometry x="-0.2924" relative="1" as="geometry">
            <mxPoint as="offset" />
          </mxGeometry>
        </mxCell>
        <mxCell id="qgOZdKixDzJ8qkSyJ_fD-116" value="shared I2C bus" style="rounded=1;whiteSpace=wrap;html=1;" parent="1" vertex="1">
          <mxGeometry x="-250" y="240" width="310" height="60" as="geometry" />
        </mxCell>
        <mxCell id="qgOZdKixDzJ8qkSyJ_fD-117" value="" style="shape=flexArrow;endArrow=classic;startArrow=classic;html=1;rounded=0;exitX=1;exitY=0.5;exitDx=0;exitDy=0;entryX=0;entryY=0.5;entryDx=0;entryDy=0;" parent="1" source="qgOZdKixDzJ8qkSyJ_fD-116" target="qgOZdKixDzJ8qkSyJ_fD-5" edge="1">
          <mxGeometry width="100" height="100" relative="1" as="geometry">
            <mxPoint x="-60" y="290" as="sourcePoint" />
            <mxPoint x="40" y="190" as="targetPoint" />
          </mxGeometry>
        </mxCell>
        <mxCell id="qgOZdKixDzJ8qkSyJ_fD-119" value="" style="endArrow=none;html=1;rounded=0;entryX=0.25;entryY=1;entryDx=0;entryDy=0;exitX=0.756;exitY=0.018;exitDx=0;exitDy=0;exitPerimeter=0;" parent="1" source="qgOZdKixDzJ8qkSyJ_fD-116" target="qgOZdKixDzJ8qkSyJ_fD-27" edge="1">
          <mxGeometry width="50" height="50" relative="1" as="geometry">
            <mxPoint x="20" y="200.0025" as="sourcePoint" />
            <mxPoint x="-50" y="202.19" as="targetPoint" />
          </mxGeometry>
        </mxCell>
        <mxCell id="qgOZdKixDzJ8qkSyJ_fD-122" value="sda" style="edgeLabel;html=1;align=center;verticalAlign=middle;resizable=0;points=[];" parent="qgOZdKixDzJ8qkSyJ_fD-119" vertex="1" connectable="0">
          <mxGeometry x="-0.2242" relative="1" as="geometry">
            <mxPoint as="offset" />
          </mxGeometry>
        </mxCell>
        <mxCell id="qgOZdKixDzJ8qkSyJ_fD-121" value="" style="endArrow=none;html=1;rounded=0;entryX=0.25;entryY=1;entryDx=0;entryDy=0;exitX=0.756;exitY=0.018;exitDx=0;exitDy=0;exitPerimeter=0;" parent="1" edge="1">
          <mxGeometry width="50" height="50" relative="1" as="geometry">
            <mxPoint x="5" y="240" as="sourcePoint" />
            <mxPoint x="5" y="179" as="targetPoint" />
          </mxGeometry>
        </mxCell>
        <mxCell id="qgOZdKixDzJ8qkSyJ_fD-123" value="sclk" style="edgeLabel;html=1;align=center;verticalAlign=middle;resizable=0;points=[];" parent="qgOZdKixDzJ8qkSyJ_fD-121" vertex="1" connectable="0">
          <mxGeometry x="0.1204" y="-2" relative="1" as="geometry">
            <mxPoint as="offset" />
          </mxGeometry>
        </mxCell>
        <mxCell id="qgOZdKixDzJ8qkSyJ_fD-124" value="power bus 1" style="rounded=1;whiteSpace=wrap;html=1;" parent="1" vertex="1">
          <mxGeometry x="-40" y="39" width="70" height="30" as="geometry" />
        </mxCell>
        <mxCell id="qgOZdKixDzJ8qkSyJ_fD-126" value="" style="endArrow=none;html=1;rounded=0;entryX=0.25;entryY=1;entryDx=0;entryDy=0;exitX=0.756;exitY=0.018;exitDx=0;exitDy=0;exitPerimeter=0;" parent="1" edge="1">
          <mxGeometry width="50" height="50" relative="1" as="geometry">
            <mxPoint x="-15.200000000000003" y="129" as="sourcePoint" />
            <mxPoint x="-15.200000000000003" y="68" as="targetPoint" />
          </mxGeometry>
        </mxCell>
        <mxCell id="qgOZdKixDzJ8qkSyJ_fD-127" value="5v" style="edgeLabel;html=1;align=center;verticalAlign=middle;resizable=0;points=[];" parent="qgOZdKixDzJ8qkSyJ_fD-126" vertex="1" connectable="0">
          <mxGeometry x="-0.2242" relative="1" as="geometry">
            <mxPoint as="offset" />
          </mxGeometry>
        </mxCell>
        <mxCell id="qgOZdKixDzJ8qkSyJ_fD-128" value="" style="endArrow=none;html=1;rounded=0;entryX=0.25;entryY=1;entryDx=0;entryDy=0;exitX=0.756;exitY=0.018;exitDx=0;exitDy=0;exitPerimeter=0;" parent="1" edge="1">
          <mxGeometry width="50" height="50" relative="1" as="geometry">
            <mxPoint x="4.800000000000001" y="129" as="sourcePoint" />
            <mxPoint x="4.800000000000001" y="68" as="targetPoint" />
          </mxGeometry>
        </mxCell>
        <mxCell id="qgOZdKixDzJ8qkSyJ_fD-129" value="3.3v" style="edgeLabel;html=1;align=center;verticalAlign=middle;resizable=0;points=[];" parent="qgOZdKixDzJ8qkSyJ_fD-128" vertex="1" connectable="0">
          <mxGeometry x="0.1204" y="-2" relative="1" as="geometry">
            <mxPoint as="offset" />
          </mxGeometry>
        </mxCell>
        <mxCell id="qgOZdKixDzJ8qkSyJ_fD-130" value="power bus 1" style="rounded=1;whiteSpace=wrap;html=1;" parent="1" vertex="1">
          <mxGeometry x="160" y="60" width="760" height="30" as="geometry" />
        </mxCell>
        <mxCell id="qgOZdKixDzJ8qkSyJ_fD-131" value="" style="endArrow=none;html=1;rounded=0;exitX=0.75;exitY=0;exitDx=0;exitDy=0;" parent="1" source="qgOZdKixDzJ8qkSyJ_fD-10" edge="1">
          <mxGeometry width="50" height="50" relative="1" as="geometry">
            <mxPoint x="140" y="140" as="sourcePoint" />
            <mxPoint x="190" y="90" as="targetPoint" />
          </mxGeometry>
        </mxCell>
        <mxCell id="qgOZdKixDzJ8qkSyJ_fD-132" value="5v" style="edgeLabel;html=1;align=center;verticalAlign=middle;resizable=0;points=[];" parent="qgOZdKixDzJ8qkSyJ_fD-131" vertex="1" connectable="0">
          <mxGeometry x="-0.0333" y="1" relative="1" as="geometry">
            <mxPoint as="offset" />
          </mxGeometry>
        </mxCell>
        <mxCell id="qgOZdKixDzJ8qkSyJ_fD-134" value="" style="endArrow=none;html=1;rounded=0;exitX=0.75;exitY=0;exitDx=0;exitDy=0;" parent="1" edge="1">
          <mxGeometry width="50" height="50" relative="1" as="geometry">
            <mxPoint x="250" y="110" as="sourcePoint" />
            <mxPoint x="250" y="90" as="targetPoint" />
          </mxGeometry>
        </mxCell>
        <mxCell id="qgOZdKixDzJ8qkSyJ_fD-135" value="5v" style="edgeLabel;html=1;align=center;verticalAlign=middle;resizable=0;points=[];" parent="qgOZdKixDzJ8qkSyJ_fD-134" vertex="1" connectable="0">
          <mxGeometry x="-0.0333" y="1" relative="1" as="geometry">
            <mxPoint as="offset" />
          </mxGeometry>
        </mxCell>
        <mxCell id="qgOZdKixDzJ8qkSyJ_fD-136" value="" style="endArrow=none;html=1;rounded=0;exitX=0.75;exitY=0;exitDx=0;exitDy=0;" parent="1" edge="1">
          <mxGeometry width="50" height="50" relative="1" as="geometry">
            <mxPoint x="310" y="110" as="sourcePoint" />
            <mxPoint x="310" y="90" as="targetPoint" />
          </mxGeometry>
        </mxCell>
        <mxCell id="qgOZdKixDzJ8qkSyJ_fD-137" value="5v" style="edgeLabel;html=1;align=center;verticalAlign=middle;resizable=0;points=[];" parent="qgOZdKixDzJ8qkSyJ_fD-136" vertex="1" connectable="0">
          <mxGeometry x="-0.0333" y="1" relative="1" as="geometry">
            <mxPoint as="offset" />
          </mxGeometry>
        </mxCell>
        <mxCell id="qgOZdKixDzJ8qkSyJ_fD-138" value="" style="endArrow=none;html=1;rounded=0;exitX=0.75;exitY=0;exitDx=0;exitDy=0;" parent="1" edge="1">
          <mxGeometry width="50" height="50" relative="1" as="geometry">
            <mxPoint x="370" y="110" as="sourcePoint" />
            <mxPoint x="370" y="90" as="targetPoint" />
          </mxGeometry>
        </mxCell>
        <mxCell id="qgOZdKixDzJ8qkSyJ_fD-139" value="5v" style="edgeLabel;html=1;align=center;verticalAlign=middle;resizable=0;points=[];" parent="qgOZdKixDzJ8qkSyJ_fD-138" vertex="1" connectable="0">
          <mxGeometry x="-0.0333" y="1" relative="1" as="geometry">
            <mxPoint as="offset" />
          </mxGeometry>
        </mxCell>
        <mxCell id="qgOZdKixDzJ8qkSyJ_fD-140" value="" style="endArrow=none;html=1;rounded=0;exitX=0.75;exitY=0;exitDx=0;exitDy=0;" parent="1" edge="1">
          <mxGeometry width="50" height="50" relative="1" as="geometry">
            <mxPoint x="430" y="110" as="sourcePoint" />
            <mxPoint x="430" y="90" as="targetPoint" />
          </mxGeometry>
        </mxCell>
        <mxCell id="qgOZdKixDzJ8qkSyJ_fD-141" value="5v" style="edgeLabel;html=1;align=center;verticalAlign=middle;resizable=0;points=[];" parent="qgOZdKixDzJ8qkSyJ_fD-140" vertex="1" connectable="0">
          <mxGeometry x="-0.0333" y="1" relative="1" as="geometry">
            <mxPoint as="offset" />
          </mxGeometry>
        </mxCell>
        <mxCell id="qgOZdKixDzJ8qkSyJ_fD-142" value="" style="endArrow=none;html=1;rounded=0;exitX=0.75;exitY=0;exitDx=0;exitDy=0;" parent="1" edge="1">
          <mxGeometry width="50" height="50" relative="1" as="geometry">
            <mxPoint x="490" y="110" as="sourcePoint" />
            <mxPoint x="490" y="90" as="targetPoint" />
          </mxGeometry>
        </mxCell>
        <mxCell id="qgOZdKixDzJ8qkSyJ_fD-143" value="5v" style="edgeLabel;html=1;align=center;verticalAlign=middle;resizable=0;points=[];" parent="qgOZdKixDzJ8qkSyJ_fD-142" vertex="1" connectable="0">
          <mxGeometry x="-0.0333" y="1" relative="1" as="geometry">
            <mxPoint as="offset" />
          </mxGeometry>
        </mxCell>
        <mxCell id="qgOZdKixDzJ8qkSyJ_fD-144" value="" style="endArrow=none;html=1;rounded=0;exitX=0.75;exitY=0;exitDx=0;exitDy=0;" parent="1" edge="1">
          <mxGeometry width="50" height="50" relative="1" as="geometry">
            <mxPoint x="550" y="110" as="sourcePoint" />
            <mxPoint x="550" y="90" as="targetPoint" />
          </mxGeometry>
        </mxCell>
        <mxCell id="qgOZdKixDzJ8qkSyJ_fD-145" value="5v" style="edgeLabel;html=1;align=center;verticalAlign=middle;resizable=0;points=[];" parent="qgOZdKixDzJ8qkSyJ_fD-144" vertex="1" connectable="0">
          <mxGeometry x="-0.0333" y="1" relative="1" as="geometry">
            <mxPoint as="offset" />
          </mxGeometry>
        </mxCell>
        <mxCell id="qgOZdKixDzJ8qkSyJ_fD-146" value="" style="endArrow=none;html=1;rounded=0;exitX=0.75;exitY=0;exitDx=0;exitDy=0;" parent="1" edge="1">
          <mxGeometry width="50" height="50" relative="1" as="geometry">
            <mxPoint x="610" y="110" as="sourcePoint" />
            <mxPoint x="610" y="90" as="targetPoint" />
          </mxGeometry>
        </mxCell>
        <mxCell id="qgOZdKixDzJ8qkSyJ_fD-147" value="5v" style="edgeLabel;html=1;align=center;verticalAlign=middle;resizable=0;points=[];" parent="qgOZdKixDzJ8qkSyJ_fD-146" vertex="1" connectable="0">
          <mxGeometry x="-0.0333" y="1" relative="1" as="geometry">
            <mxPoint as="offset" />
          </mxGeometry>
        </mxCell>
        <mxCell id="qgOZdKixDzJ8qkSyJ_fD-148" value="" style="endArrow=none;html=1;rounded=0;exitX=0.75;exitY=0;exitDx=0;exitDy=0;" parent="1" edge="1">
          <mxGeometry width="50" height="50" relative="1" as="geometry">
            <mxPoint x="670" y="110" as="sourcePoint" />
            <mxPoint x="670" y="90" as="targetPoint" />
          </mxGeometry>
        </mxCell>
        <mxCell id="qgOZdKixDzJ8qkSyJ_fD-149" value="5v" style="edgeLabel;html=1;align=center;verticalAlign=middle;resizable=0;points=[];" parent="qgOZdKixDzJ8qkSyJ_fD-148" vertex="1" connectable="0">
          <mxGeometry x="-0.0333" y="1" relative="1" as="geometry">
            <mxPoint as="offset" />
          </mxGeometry>
        </mxCell>
        <mxCell id="qgOZdKixDzJ8qkSyJ_fD-150" value="" style="endArrow=none;html=1;rounded=0;entryX=0.25;entryY=1;entryDx=0;entryDy=0;exitX=0.756;exitY=0.018;exitDx=0;exitDy=0;exitPerimeter=0;" parent="1" edge="1">
          <mxGeometry width="50" height="50" relative="1" as="geometry">
            <mxPoint x="-95.24" y="239" as="sourcePoint" />
            <mxPoint x="-95.24" y="178" as="targetPoint" />
          </mxGeometry>
        </mxCell>
        <mxCell id="qgOZdKixDzJ8qkSyJ_fD-151" value="sda" style="edgeLabel;html=1;align=center;verticalAlign=middle;resizable=0;points=[];" parent="qgOZdKixDzJ8qkSyJ_fD-150" vertex="1" connectable="0">
          <mxGeometry x="-0.2242" relative="1" as="geometry">
            <mxPoint as="offset" />
          </mxGeometry>
        </mxCell>
        <mxCell id="qgOZdKixDzJ8qkSyJ_fD-152" value="" style="endArrow=none;html=1;rounded=0;entryX=0.25;entryY=1;entryDx=0;entryDy=0;exitX=0.756;exitY=0.018;exitDx=0;exitDy=0;exitPerimeter=0;" parent="1" edge="1">
          <mxGeometry width="50" height="50" relative="1" as="geometry">
            <mxPoint x="-75.24" y="239" as="sourcePoint" />
            <mxPoint x="-75.24" y="178" as="targetPoint" />
          </mxGeometry>
        </mxCell>
        <mxCell id="qgOZdKixDzJ8qkSyJ_fD-153" value="sclk" style="edgeLabel;html=1;align=center;verticalAlign=middle;resizable=0;points=[];" parent="qgOZdKixDzJ8qkSyJ_fD-152" vertex="1" connectable="0">
          <mxGeometry x="0.1204" y="-2" relative="1" as="geometry">
            <mxPoint as="offset" />
          </mxGeometry>
        </mxCell>
        <mxCell id="qgOZdKixDzJ8qkSyJ_fD-154" value="" style="endArrow=none;html=1;rounded=0;entryX=0.25;entryY=1;entryDx=0;entryDy=0;exitX=0.756;exitY=0.018;exitDx=0;exitDy=0;exitPerimeter=0;" parent="1" edge="1">
          <mxGeometry width="50" height="50" relative="1" as="geometry">
            <mxPoint x="-175.24" y="239" as="sourcePoint" />
            <mxPoint x="-175.24" y="178" as="targetPoint" />
          </mxGeometry>
        </mxCell>
        <mxCell id="qgOZdKixDzJ8qkSyJ_fD-155" value="sda" style="edgeLabel;html=1;align=center;verticalAlign=middle;resizable=0;points=[];" parent="qgOZdKixDzJ8qkSyJ_fD-154" vertex="1" connectable="0">
          <mxGeometry x="-0.2242" relative="1" as="geometry">
            <mxPoint as="offset" />
          </mxGeometry>
        </mxCell>
        <mxCell id="qgOZdKixDzJ8qkSyJ_fD-156" value="" style="endArrow=none;html=1;rounded=0;entryX=0.25;entryY=1;entryDx=0;entryDy=0;exitX=0.756;exitY=0.018;exitDx=0;exitDy=0;exitPerimeter=0;" parent="1" edge="1">
          <mxGeometry width="50" height="50" relative="1" as="geometry">
            <mxPoint x="-155.24" y="239" as="sourcePoint" />
            <mxPoint x="-155.24" y="178" as="targetPoint" />
          </mxGeometry>
        </mxCell>
        <mxCell id="qgOZdKixDzJ8qkSyJ_fD-157" value="sclk" style="edgeLabel;html=1;align=center;verticalAlign=middle;resizable=0;points=[];" parent="qgOZdKixDzJ8qkSyJ_fD-156" vertex="1" connectable="0">
          <mxGeometry x="0.1204" y="-2" relative="1" as="geometry">
            <mxPoint as="offset" />
          </mxGeometry>
        </mxCell>
        <mxCell id="qgOZdKixDzJ8qkSyJ_fD-158" value="power bus 2" style="rounded=1;whiteSpace=wrap;html=1;" parent="1" vertex="1">
          <mxGeometry x="-120" y="39" width="70" height="30" as="geometry" />
        </mxCell>
        <mxCell id="qgOZdKixDzJ8qkSyJ_fD-159" value="" style="endArrow=none;html=1;rounded=0;entryX=0.25;entryY=1;entryDx=0;entryDy=0;exitX=0.756;exitY=0.018;exitDx=0;exitDy=0;exitPerimeter=0;" parent="1" edge="1">
          <mxGeometry width="50" height="50" relative="1" as="geometry">
            <mxPoint x="-95.2" y="129" as="sourcePoint" />
            <mxPoint x="-95.2" y="68" as="targetPoint" />
          </mxGeometry>
        </mxCell>
        <mxCell id="qgOZdKixDzJ8qkSyJ_fD-160" value="5v" style="edgeLabel;html=1;align=center;verticalAlign=middle;resizable=0;points=[];" parent="qgOZdKixDzJ8qkSyJ_fD-159" vertex="1" connectable="0">
          <mxGeometry x="-0.2242" relative="1" as="geometry">
            <mxPoint as="offset" />
          </mxGeometry>
        </mxCell>
        <mxCell id="qgOZdKixDzJ8qkSyJ_fD-161" value="" style="endArrow=none;html=1;rounded=0;entryX=0.25;entryY=1;entryDx=0;entryDy=0;exitX=0.756;exitY=0.018;exitDx=0;exitDy=0;exitPerimeter=0;" parent="1" edge="1">
          <mxGeometry width="50" height="50" relative="1" as="geometry">
            <mxPoint x="-75.2" y="129" as="sourcePoint" />
            <mxPoint x="-75.2" y="68" as="targetPoint" />
          </mxGeometry>
        </mxCell>
        <mxCell id="qgOZdKixDzJ8qkSyJ_fD-162" value="3.3v" style="edgeLabel;html=1;align=center;verticalAlign=middle;resizable=0;points=[];" parent="qgOZdKixDzJ8qkSyJ_fD-161" vertex="1" connectable="0">
          <mxGeometry x="0.1204" y="-2" relative="1" as="geometry">
            <mxPoint as="offset" />
          </mxGeometry>
        </mxCell>
        <mxCell id="qgOZdKixDzJ8qkSyJ_fD-163" value="power bus 3" style="rounded=1;whiteSpace=wrap;html=1;" parent="1" vertex="1">
          <mxGeometry x="-200" y="39" width="70" height="30" as="geometry" />
        </mxCell>
        <mxCell id="qgOZdKixDzJ8qkSyJ_fD-164" value="" style="endArrow=none;html=1;rounded=0;entryX=0.25;entryY=1;entryDx=0;entryDy=0;exitX=0.756;exitY=0.018;exitDx=0;exitDy=0;exitPerimeter=0;" parent="1" edge="1">
          <mxGeometry width="50" height="50" relative="1" as="geometry">
            <mxPoint x="-175.2" y="129" as="sourcePoint" />
            <mxPoint x="-175.2" y="68" as="targetPoint" />
          </mxGeometry>
        </mxCell>
        <mxCell id="qgOZdKixDzJ8qkSyJ_fD-165" value="5v" style="edgeLabel;html=1;align=center;verticalAlign=middle;resizable=0;points=[];" parent="qgOZdKixDzJ8qkSyJ_fD-164" vertex="1" connectable="0">
          <mxGeometry x="-0.2242" relative="1" as="geometry">
            <mxPoint as="offset" />
          </mxGeometry>
        </mxCell>
        <mxCell id="qgOZdKixDzJ8qkSyJ_fD-166" value="" style="endArrow=none;html=1;rounded=0;entryX=0.25;entryY=1;entryDx=0;entryDy=0;exitX=0.756;exitY=0.018;exitDx=0;exitDy=0;exitPerimeter=0;" parent="1" edge="1">
          <mxGeometry width="50" height="50" relative="1" as="geometry">
            <mxPoint x="-155.2" y="129" as="sourcePoint" />
            <mxPoint x="-155.2" y="68" as="targetPoint" />
          </mxGeometry>
        </mxCell>
        <mxCell id="qgOZdKixDzJ8qkSyJ_fD-167" value="3.3v" style="edgeLabel;html=1;align=center;verticalAlign=middle;resizable=0;points=[];" parent="qgOZdKixDzJ8qkSyJ_fD-166" vertex="1" connectable="0">
          <mxGeometry x="0.1204" y="-2" relative="1" as="geometry">
            <mxPoint as="offset" />
          </mxGeometry>
        </mxCell>
        <mxCell id="qgOZdKixDzJ8qkSyJ_fD-168" value="Text" style="text;html=1;align=center;verticalAlign=middle;whiteSpace=wrap;rounded=0;" parent="1" vertex="1">
          <mxGeometry x="140" y="90" width="60" height="30" as="geometry" />
        </mxCell>
        <mxCell id="qgOZdKixDzJ8qkSyJ_fD-169" value="BMS" style="text;html=1;align=center;verticalAlign=middle;whiteSpace=wrap;rounded=0;" parent="1" vertex="1">
          <mxGeometry x="-125" width="60" height="30" as="geometry" />
        </mxCell>
        <mxCell id="qgOZdKixDzJ8qkSyJ_fD-170" value="charge /&lt;div&gt;discharge&lt;/div&gt;&lt;div&gt;controller&lt;/div&gt;" style="rounded=0;whiteSpace=wrap;html=1;" parent="1" vertex="1">
          <mxGeometry x="-250" y="108" width="55" height="71" as="geometry" />
        </mxCell>
        <mxCell id="qgOZdKixDzJ8qkSyJ_fD-171" value="" style="endArrow=none;html=1;rounded=0;entryX=0.25;entryY=1;entryDx=0;entryDy=0;exitX=0.756;exitY=0.018;exitDx=0;exitDy=0;exitPerimeter=0;" parent="1" edge="1">
          <mxGeometry width="50" height="50" relative="1" as="geometry">
            <mxPoint x="-240.00000000000003" y="240" as="sourcePoint" />
            <mxPoint x="-240.00000000000003" y="179" as="targetPoint" />
          </mxGeometry>
        </mxCell>
        <mxCell id="qgOZdKixDzJ8qkSyJ_fD-172" value="sda" style="edgeLabel;html=1;align=center;verticalAlign=middle;resizable=0;points=[];" parent="qgOZdKixDzJ8qkSyJ_fD-171" vertex="1" connectable="0">
          <mxGeometry x="-0.2242" relative="1" as="geometry">
            <mxPoint as="offset" />
          </mxGeometry>
        </mxCell>
        <mxCell id="qgOZdKixDzJ8qkSyJ_fD-173" value="" style="endArrow=none;html=1;rounded=0;entryX=0.25;entryY=1;entryDx=0;entryDy=0;exitX=0.756;exitY=0.018;exitDx=0;exitDy=0;exitPerimeter=0;" parent="1" edge="1">
          <mxGeometry width="50" height="50" relative="1" as="geometry">
            <mxPoint x="-210.00000000000003" y="240" as="sourcePoint" />
            <mxPoint x="-210.00000000000003" y="179" as="targetPoint" />
          </mxGeometry>
        </mxCell>
        <mxCell id="qgOZdKixDzJ8qkSyJ_fD-174" value="sclk" style="edgeLabel;html=1;align=center;verticalAlign=middle;resizable=0;points=[];" parent="qgOZdKixDzJ8qkSyJ_fD-173" vertex="1" connectable="0">
          <mxGeometry x="0.1204" y="-2" relative="1" as="geometry">
            <mxPoint as="offset" />
          </mxGeometry>
        </mxCell>
        <mxCell id="qgOZdKixDzJ8qkSyJ_fD-176" value="power bus 2" style="rounded=1;whiteSpace=wrap;html=1;" parent="1" vertex="1">
          <mxGeometry x="170" y="630" width="510" height="30" as="geometry" />
        </mxCell>
        <mxCell id="qgOZdKixDzJ8qkSyJ_fD-178" value="" style="endArrow=none;html=1;rounded=0;" parent="1" edge="1">
          <mxGeometry width="50" height="50" relative="1" as="geometry">
            <mxPoint x="330" y="630" as="sourcePoint" />
            <mxPoint x="330" y="551" as="targetPoint" />
          </mxGeometry>
        </mxCell>
        <mxCell id="qgOZdKixDzJ8qkSyJ_fD-179" value="5v" style="edgeLabel;html=1;align=center;verticalAlign=middle;resizable=0;points=[];" parent="qgOZdKixDzJ8qkSyJ_fD-178" vertex="1" connectable="0">
          <mxGeometry x="-0.256" y="-1" relative="1" as="geometry">
            <mxPoint as="offset" />
          </mxGeometry>
        </mxCell>
        <mxCell id="qgOZdKixDzJ8qkSyJ_fD-180" value="" style="endArrow=none;html=1;rounded=0;entryX=0.93;entryY=1.034;entryDx=0;entryDy=0;entryPerimeter=0;" parent="1" target="qgOZdKixDzJ8qkSyJ_fD-8" edge="1">
          <mxGeometry width="50" height="50" relative="1" as="geometry">
            <mxPoint x="670" y="630" as="sourcePoint" />
            <mxPoint x="670" y="600" as="targetPoint" />
          </mxGeometry>
        </mxCell>
        <mxCell id="qgOZdKixDzJ8qkSyJ_fD-181" value="5v" style="edgeLabel;html=1;align=center;verticalAlign=middle;resizable=0;points=[];" parent="qgOZdKixDzJ8qkSyJ_fD-180" vertex="1" connectable="0">
          <mxGeometry x="-0.256" y="-1" relative="1" as="geometry">
            <mxPoint as="offset" />
          </mxGeometry>
        </mxCell>
        <mxCell id="qgOZdKixDzJ8qkSyJ_fD-182" value="" style="endArrow=none;html=1;rounded=0;entryX=0;entryY=0.5;entryDx=0;entryDy=0;" parent="1" target="qgOZdKixDzJ8qkSyJ_fD-7" edge="1">
          <mxGeometry width="50" height="50" relative="1" as="geometry">
            <mxPoint x="180" y="630" as="sourcePoint" />
            <mxPoint x="330" y="425" as="targetPoint" />
            <Array as="points">
              <mxPoint x="180" y="425" />
            </Array>
          </mxGeometry>
        </mxCell>
        <mxCell id="qgOZdKixDzJ8qkSyJ_fD-183" value="5v" style="edgeLabel;html=1;align=center;verticalAlign=middle;resizable=0;points=[];" parent="qgOZdKixDzJ8qkSyJ_fD-182" vertex="1" connectable="0">
          <mxGeometry x="-0.256" y="-1" relative="1" as="geometry">
            <mxPoint as="offset" />
          </mxGeometry>
        </mxCell>
        <mxCell id="qgOZdKixDzJ8qkSyJ_fD-184" value="" style="rounded=0;whiteSpace=wrap;html=1;" parent="1" vertex="1">
          <mxGeometry x="770" y="385" width="180" height="330" as="geometry" />
        </mxCell>
        <mxCell id="qgOZdKixDzJ8qkSyJ_fD-185" value="shared spi bus" style="rounded=1;whiteSpace=wrap;html=1;" parent="1" vertex="1">
          <mxGeometry x="420" y="485" width="220" height="40" as="geometry" />
        </mxCell>
        <mxCell id="qgOZdKixDzJ8qkSyJ_fD-196" value="" style="endArrow=none;html=1;rounded=0;entryX=0.67;entryY=0.992;entryDx=0;entryDy=0;entryPerimeter=0;exitX=0;exitY=0;exitDx=0;exitDy=0;" parent="1" edge="1">
          <mxGeometry width="50" height="50" relative="1" as="geometry">
            <mxPoint x="529.66" y="560" as="sourcePoint" />
            <mxPoint x="530.0600000000001" y="524.6" as="targetPoint" />
          </mxGeometry>
        </mxCell>
        <mxCell id="qgOZdKixDzJ8qkSyJ_fD-197" value="miso" style="edgeLabel;html=1;align=center;verticalAlign=middle;resizable=0;points=[];" parent="qgOZdKixDzJ8qkSyJ_fD-196" vertex="1" connectable="0">
          <mxGeometry x="0.5375" y="-1" relative="1" as="geometry">
            <mxPoint as="offset" />
          </mxGeometry>
        </mxCell>
        <mxCell id="qgOZdKixDzJ8qkSyJ_fD-198" value="" style="endArrow=none;html=1;rounded=0;entryX=0.67;entryY=0.992;entryDx=0;entryDy=0;entryPerimeter=0;exitX=0;exitY=0;exitDx=0;exitDy=0;" parent="1" edge="1">
          <mxGeometry width="50" height="50" relative="1" as="geometry">
            <mxPoint x="549.66" y="560" as="sourcePoint" />
            <mxPoint x="550.0600000000001" y="524.6" as="targetPoint" />
          </mxGeometry>
        </mxCell>
        <mxCell id="qgOZdKixDzJ8qkSyJ_fD-199" value="mosi" style="edgeLabel;html=1;align=center;verticalAlign=middle;resizable=0;points=[];" parent="qgOZdKixDzJ8qkSyJ_fD-198" vertex="1" connectable="0">
          <mxGeometry x="-0.6385" relative="1" as="geometry">
            <mxPoint y="-9" as="offset" />
          </mxGeometry>
        </mxCell>
        <mxCell id="qgOZdKixDzJ8qkSyJ_fD-200" value="" style="endArrow=none;html=1;rounded=0;entryX=0.67;entryY=0.992;entryDx=0;entryDy=0;entryPerimeter=0;exitX=0;exitY=0;exitDx=0;exitDy=0;" parent="1" edge="1">
          <mxGeometry width="50" height="50" relative="1" as="geometry">
            <mxPoint x="509.65999999999997" y="560" as="sourcePoint" />
            <mxPoint x="510.06000000000006" y="524.6" as="targetPoint" />
          </mxGeometry>
        </mxCell>
        <mxCell id="qgOZdKixDzJ8qkSyJ_fD-201" value="clk" style="edgeLabel;html=1;align=center;verticalAlign=middle;resizable=0;points=[];" parent="qgOZdKixDzJ8qkSyJ_fD-200" vertex="1" connectable="0">
          <mxGeometry x="-0.2924" relative="1" as="geometry">
            <mxPoint as="offset" />
          </mxGeometry>
        </mxCell>
        <mxCell id="qgOZdKixDzJ8qkSyJ_fD-210" value="" style="endArrow=none;html=1;rounded=0;entryX=-0.001;entryY=0.229;entryDx=0;entryDy=0;exitX=1;exitY=0.259;exitDx=0;exitDy=0;exitPerimeter=0;entryPerimeter=0;" parent="1" source="qgOZdKixDzJ8qkSyJ_fD-6" target="qgOZdKixDzJ8qkSyJ_fD-185" edge="1">
          <mxGeometry width="50" height="50" relative="1" as="geometry">
            <mxPoint x="400" y="520.4" as="sourcePoint" />
            <mxPoint x="400.4000000000001" y="485" as="targetPoint" />
          </mxGeometry>
        </mxCell>
        <mxCell id="qgOZdKixDzJ8qkSyJ_fD-211" value="mosi" style="edgeLabel;html=1;align=center;verticalAlign=middle;resizable=0;points=[];" parent="qgOZdKixDzJ8qkSyJ_fD-210" vertex="1" connectable="0">
          <mxGeometry x="-0.2924" relative="1" as="geometry">
            <mxPoint x="6" as="offset" />
          </mxGeometry>
        </mxCell>
        <mxCell id="qgOZdKixDzJ8qkSyJ_fD-212" value="" style="endArrow=none;html=1;rounded=0;entryX=-0.001;entryY=0.229;entryDx=0;entryDy=0;exitX=0.998;exitY=0.399;exitDx=0;exitDy=0;exitPerimeter=0;entryPerimeter=0;" parent="1" source="qgOZdKixDzJ8qkSyJ_fD-6" edge="1">
          <mxGeometry width="50" height="50" relative="1" as="geometry">
            <mxPoint x="380" y="504.86" as="sourcePoint" />
            <mxPoint x="420" y="504.86" as="targetPoint" />
          </mxGeometry>
        </mxCell>
        <mxCell id="qgOZdKixDzJ8qkSyJ_fD-213" value="clk" style="edgeLabel;html=1;align=center;verticalAlign=middle;resizable=0;points=[];" parent="qgOZdKixDzJ8qkSyJ_fD-212" vertex="1" connectable="0">
          <mxGeometry x="-0.2924" relative="1" as="geometry">
            <mxPoint x="22" as="offset" />
          </mxGeometry>
        </mxCell>
        <mxCell id="qgOZdKixDzJ8qkSyJ_fD-214" value="" style="endArrow=none;html=1;rounded=0;entryX=-0.001;entryY=0.229;entryDx=0;entryDy=0;exitX=1;exitY=0.5;exitDx=0;exitDy=0;entryPerimeter=0;" parent="1" source="qgOZdKixDzJ8qkSyJ_fD-6" edge="1">
          <mxGeometry width="50" height="50" relative="1" as="geometry">
            <mxPoint x="380" y="512.36" as="sourcePoint" />
            <mxPoint x="420" y="512.36" as="targetPoint" />
          </mxGeometry>
        </mxCell>
        <mxCell id="qgOZdKixDzJ8qkSyJ_fD-216" value="miso" style="edgeLabel;html=1;align=center;verticalAlign=middle;resizable=0;points=[];" parent="qgOZdKixDzJ8qkSyJ_fD-214" vertex="1" connectable="0">
          <mxGeometry x="0.5722" y="-1" relative="1" as="geometry">
            <mxPoint x="-21" y="-1" as="offset" />
          </mxGeometry>
        </mxCell>
        <mxCell id="qgOZdKixDzJ8qkSyJ_fD-217" value="lora radio" style="rounded=0;whiteSpace=wrap;html=1;" parent="1" vertex="1">
          <mxGeometry x="800" y="545" width="120" height="60" as="geometry" />
        </mxCell>
        <mxCell id="qgOZdKixDzJ8qkSyJ_fD-226" value="power bus 3" style="rounded=1;whiteSpace=wrap;html=1;" parent="1" vertex="1">
          <mxGeometry x="800" y="473" width="125" height="30" as="geometry" />
        </mxCell>
        <mxCell id="qgOZdKixDzJ8qkSyJ_fD-227" value="" style="endArrow=none;html=1;rounded=0;" parent="1" edge="1">
          <mxGeometry width="50" height="50" relative="1" as="geometry">
            <mxPoint x="530" y="630" as="sourcePoint" />
            <mxPoint x="529.77" y="600" as="targetPoint" />
          </mxGeometry>
        </mxCell>
        <mxCell id="qgOZdKixDzJ8qkSyJ_fD-228" value="5v" style="edgeLabel;html=1;align=center;verticalAlign=middle;resizable=0;points=[];" parent="qgOZdKixDzJ8qkSyJ_fD-227" vertex="1" connectable="0">
          <mxGeometry x="-0.256" y="-1" relative="1" as="geometry">
            <mxPoint as="offset" />
          </mxGeometry>
        </mxCell>
        <mxCell id="qgOZdKixDzJ8qkSyJ_fD-229" value="" style="endArrow=none;html=1;rounded=0;exitX=0.5;exitY=0;exitDx=0;exitDy=0;" parent="1" source="qgOZdKixDzJ8qkSyJ_fD-217" edge="1">
          <mxGeometry width="50" height="50" relative="1" as="geometry">
            <mxPoint x="810" y="553" as="sourcePoint" />
            <mxPoint x="860" y="503" as="targetPoint" />
          </mxGeometry>
        </mxCell>
        <mxCell id="qgOZdKixDzJ8qkSyJ_fD-230" value="5v" style="edgeLabel;html=1;align=center;verticalAlign=middle;resizable=0;points=[];" parent="qgOZdKixDzJ8qkSyJ_fD-229" vertex="1" connectable="0">
          <mxGeometry x="-0.127" y="-1" relative="1" as="geometry">
            <mxPoint as="offset" />
          </mxGeometry>
        </mxCell>
        <mxCell id="qgOZdKixDzJ8qkSyJ_fD-231" value="communication module" style="text;html=1;align=center;verticalAlign=middle;whiteSpace=wrap;rounded=0;" parent="1" vertex="1">
          <mxGeometry x="800" y="404" width="120" height="30" as="geometry" />
        </mxCell>
        <mxCell id="qgOZdKixDzJ8qkSyJ_fD-232" value="on board computer" style="text;html=1;align=center;verticalAlign=middle;whiteSpace=wrap;rounded=0;" parent="1" vertex="1">
          <mxGeometry x="360" y="670" width="130" height="30" as="geometry" />
        </mxCell>
        <mxCell id="qgOZdKixDzJ8qkSyJ_fD-234" value="shared I2C bus" style="rounded=1;whiteSpace=wrap;html=1;" parent="1" vertex="1">
          <mxGeometry x="-65" y="437" width="120" height="60" as="geometry" />
        </mxCell>
        <mxCell id="qgOZdKixDzJ8qkSyJ_fD-235" value="shared spi bus" style="rounded=1;whiteSpace=wrap;html=1;" parent="1" vertex="1">
          <mxGeometry x="-65" y="518" width="120" height="60" as="geometry" />
        </mxCell>
        <mxCell id="qgOZdKixDzJ8qkSyJ_fD-236" value="raspberry pi 4 UART&amp;nbsp;" style="rounded=1;whiteSpace=wrap;html=1;" parent="1" vertex="1">
          <mxGeometry x="-65" y="603" width="120" height="60" as="geometry" />
        </mxCell>
        <mxCell id="qgOZdKixDzJ8qkSyJ_fD-239" value="Open buses&amp;nbsp;" style="text;html=1;align=center;verticalAlign=middle;whiteSpace=wrap;rounded=0;" parent="1" vertex="1">
          <mxGeometry x="-50" y="390" width="80" height="30" as="geometry" />
        </mxCell>
        <mxCell id="ErIsnhiV7MUSUZ37BOKE-1" value="Light&lt;div&gt;s1&lt;/div&gt;" style="rounded=0;whiteSpace=wrap;html=1;" parent="1" vertex="1">
          <mxGeometry x="640" y="110" width="40" height="50" as="geometry" />
        </mxCell>
        <mxCell id="ErIsnhiV7MUSUZ37BOKE-2" value="sda" style="endArrow=none;html=1;rounded=0;entryX=0.25;entryY=1;entryDx=0;entryDy=0;" parent="1" edge="1">
          <mxGeometry width="50" height="50" relative="1" as="geometry">
            <mxPoint x="709.71" y="240" as="sourcePoint" />
            <mxPoint x="709.71" y="160" as="targetPoint" />
          </mxGeometry>
        </mxCell>
        <mxCell id="ErIsnhiV7MUSUZ37BOKE-3" value="" style="endArrow=none;html=1;rounded=0;entryX=0.25;entryY=1;entryDx=0;entryDy=0;" parent="1" edge="1">
          <mxGeometry width="50" height="50" relative="1" as="geometry">
            <mxPoint x="729.71" y="240" as="sourcePoint" />
            <mxPoint x="729.71" y="160" as="targetPoint" />
          </mxGeometry>
        </mxCell>
        <mxCell id="ErIsnhiV7MUSUZ37BOKE-4" value="sclk" style="edgeLabel;html=1;align=center;verticalAlign=middle;resizable=0;points=[];" parent="ErIsnhiV7MUSUZ37BOKE-3" vertex="1" connectable="0">
          <mxGeometry x="-0.25" y="-1" relative="1" as="geometry">
            <mxPoint as="offset" />
          </mxGeometry>
        </mxCell>
        <mxCell id="ErIsnhiV7MUSUZ37BOKE-5" value="" style="endArrow=none;html=1;rounded=0;exitX=0.75;exitY=0;exitDx=0;exitDy=0;" parent="1" edge="1">
          <mxGeometry width="50" height="50" relative="1" as="geometry">
            <mxPoint x="730" y="110" as="sourcePoint" />
            <mxPoint x="730" y="90" as="targetPoint" />
          </mxGeometry>
        </mxCell>
        <mxCell id="ErIsnhiV7MUSUZ37BOKE-6" value="5v" style="edgeLabel;html=1;align=center;verticalAlign=middle;resizable=0;points=[];" parent="ErIsnhiV7MUSUZ37BOKE-5" vertex="1" connectable="0">
          <mxGeometry x="-0.0333" y="1" relative="1" as="geometry">
            <mxPoint as="offset" />
          </mxGeometry>
        </mxCell>
        <mxCell id="ErIsnhiV7MUSUZ37BOKE-7" value="Light&lt;div&gt;s2&lt;/div&gt;" style="rounded=0;whiteSpace=wrap;html=1;" parent="1" vertex="1">
          <mxGeometry x="700" y="110" width="40" height="50" as="geometry" />
        </mxCell>
        <mxCell id="ErIsnhiV7MUSUZ37BOKE-8" value="sda" style="endArrow=none;html=1;rounded=0;entryX=0.25;entryY=1;entryDx=0;entryDy=0;" parent="1" edge="1">
          <mxGeometry width="50" height="50" relative="1" as="geometry">
            <mxPoint x="769.71" y="240" as="sourcePoint" />
            <mxPoint x="769.71" y="160" as="targetPoint" />
          </mxGeometry>
        </mxCell>
        <mxCell id="ErIsnhiV7MUSUZ37BOKE-9" value="" style="endArrow=none;html=1;rounded=0;entryX=0.25;entryY=1;entryDx=0;entryDy=0;" parent="1" edge="1">
          <mxGeometry width="50" height="50" relative="1" as="geometry">
            <mxPoint x="789.71" y="240" as="sourcePoint" />
            <mxPoint x="789.71" y="160" as="targetPoint" />
          </mxGeometry>
        </mxCell>
        <mxCell id="ErIsnhiV7MUSUZ37BOKE-10" value="sclk" style="edgeLabel;html=1;align=center;verticalAlign=middle;resizable=0;points=[];" parent="ErIsnhiV7MUSUZ37BOKE-9" vertex="1" connectable="0">
          <mxGeometry x="-0.25" y="-1" relative="1" as="geometry">
            <mxPoint as="offset" />
          </mxGeometry>
        </mxCell>
        <mxCell id="ErIsnhiV7MUSUZ37BOKE-11" value="" style="endArrow=none;html=1;rounded=0;exitX=0.75;exitY=0;exitDx=0;exitDy=0;" parent="1" edge="1">
          <mxGeometry width="50" height="50" relative="1" as="geometry">
            <mxPoint x="790" y="110" as="sourcePoint" />
            <mxPoint x="790" y="90" as="targetPoint" />
          </mxGeometry>
        </mxCell>
        <mxCell id="ErIsnhiV7MUSUZ37BOKE-12" value="5v" style="edgeLabel;html=1;align=center;verticalAlign=middle;resizable=0;points=[];" parent="ErIsnhiV7MUSUZ37BOKE-11" vertex="1" connectable="0">
          <mxGeometry x="-0.0333" y="1" relative="1" as="geometry">
            <mxPoint as="offset" />
          </mxGeometry>
        </mxCell>
        <mxCell id="ErIsnhiV7MUSUZ37BOKE-13" value="Light&lt;div&gt;s3&lt;/div&gt;" style="rounded=0;whiteSpace=wrap;html=1;" parent="1" vertex="1">
          <mxGeometry x="760" y="110" width="40" height="50" as="geometry" />
        </mxCell>
        <mxCell id="sQTgm0bb_6liqqpWZDJR-1" value="RTC" style="rounded=0;whiteSpace=wrap;html=1;" vertex="1" parent="1">
          <mxGeometry x="870" y="108" width="40" height="50" as="geometry" />
        </mxCell>
        <mxCell id="sQTgm0bb_6liqqpWZDJR-6" value="sda" style="endArrow=none;html=1;rounded=0;entryX=0.25;entryY=1;entryDx=0;entryDy=0;" edge="1" parent="1">
          <mxGeometry width="50" height="50" relative="1" as="geometry">
            <mxPoint x="879.5" y="238" as="sourcePoint" />
            <mxPoint x="879.5" y="158" as="targetPoint" />
          </mxGeometry>
        </mxCell>
        <mxCell id="sQTgm0bb_6liqqpWZDJR-7" value="" style="endArrow=none;html=1;rounded=0;entryX=0.25;entryY=1;entryDx=0;entryDy=0;" edge="1" parent="1">
          <mxGeometry width="50" height="50" relative="1" as="geometry">
            <mxPoint x="899.5" y="238" as="sourcePoint" />
            <mxPoint x="899.5" y="158" as="targetPoint" />
          </mxGeometry>
        </mxCell>
        <mxCell id="sQTgm0bb_6liqqpWZDJR-8" value="sclk" style="edgeLabel;html=1;align=center;verticalAlign=middle;resizable=0;points=[];" vertex="1" connectable="0" parent="sQTgm0bb_6liqqpWZDJR-7">
          <mxGeometry x="-0.25" y="-1" relative="1" as="geometry">
            <mxPoint as="offset" />
          </mxGeometry>
        </mxCell>
        <mxCell id="sQTgm0bb_6liqqpWZDJR-9" value="" style="endArrow=none;html=1;rounded=0;exitX=0.75;exitY=0;exitDx=0;exitDy=0;" edge="1" parent="1">
          <mxGeometry width="50" height="50" relative="1" as="geometry">
            <mxPoint x="900" y="110" as="sourcePoint" />
            <mxPoint x="900" y="90" as="targetPoint" />
          </mxGeometry>
        </mxCell>
        <mxCell id="sQTgm0bb_6liqqpWZDJR-10" value="5v" style="edgeLabel;html=1;align=center;verticalAlign=middle;resizable=0;points=[];" vertex="1" connectable="0" parent="sQTgm0bb_6liqqpWZDJR-9">
          <mxGeometry x="-0.0333" y="1" relative="1" as="geometry">
            <mxPoint as="offset" />
          </mxGeometry>
        </mxCell>
        <mxCell id="sQTgm0bb_6liqqpWZDJR-13" style="edgeStyle=orthogonalEdgeStyle;rounded=0;orthogonalLoop=1;jettySize=auto;html=1;exitX=0.25;exitY=0;exitDx=0;exitDy=0;entryX=0.25;entryY=1;entryDx=0;entryDy=0;" edge="1" parent="1" source="sQTgm0bb_6liqqpWZDJR-11" target="qgOZdKixDzJ8qkSyJ_fD-217">
          <mxGeometry relative="1" as="geometry" />
        </mxCell>
        <mxCell id="sQTgm0bb_6liqqpWZDJR-15" value="RX/TX" style="edgeLabel;html=1;align=center;verticalAlign=middle;resizable=0;points=[];" vertex="1" connectable="0" parent="sQTgm0bb_6liqqpWZDJR-13">
          <mxGeometry x="0.0293" y="-1" relative="1" as="geometry">
            <mxPoint as="offset" />
          </mxGeometry>
        </mxCell>
        <mxCell id="sQTgm0bb_6liqqpWZDJR-14" style="edgeStyle=orthogonalEdgeStyle;rounded=0;orthogonalLoop=1;jettySize=auto;html=1;exitX=0.75;exitY=0;exitDx=0;exitDy=0;entryX=0.75;entryY=1;entryDx=0;entryDy=0;" edge="1" parent="1" source="sQTgm0bb_6liqqpWZDJR-11" target="qgOZdKixDzJ8qkSyJ_fD-217">
          <mxGeometry relative="1" as="geometry" />
        </mxCell>
        <mxCell id="sQTgm0bb_6liqqpWZDJR-16" value="TX/RX" style="edgeLabel;html=1;align=center;verticalAlign=middle;resizable=0;points=[];" vertex="1" connectable="0" parent="sQTgm0bb_6liqqpWZDJR-14">
          <mxGeometry x="0.072" relative="1" as="geometry">
            <mxPoint as="offset" />
          </mxGeometry>
        </mxCell>
        <mxCell id="sQTgm0bb_6liqqpWZDJR-11" value="raspberry pi 4 UART&amp;nbsp;" style="rounded=1;whiteSpace=wrap;html=1;" vertex="1" parent="1">
          <mxGeometry x="802.5" y="640" width="120" height="60" as="geometry" />
        </mxCell>
      </root>
    </mxGraphModel>
  </diagram>
</mxfile>
